<svg xmlns="http://www.w3.org/2000/svg" viewBox="0 0 128 160" x="0px" y="0px"><g><path d="M64.218,53.451a3.512,3.512,0,0,1-.313-.179,3.118,3.118,0,0,1-.4-.31.377.377,0,0,0-.374-.069.371.371,0,0,0-.242.292c-.028.171-.072.343-.115.515a4.071,4.071,0,0,0-.167,1,10.956,10.956,0,0,0,.12,1.416l.032.255a9.861,9.861,0,0,1,.07,1.5v0a.692.692,0,0,0,.214.532.835.835,0,0,0,.58.193c.054,0,.106,0,.153-.007a.375.375,0,0,0,.339-.311c.067-.4.15-.8.232-1.2a15.832,15.832,0,0,0,.387-2.593C64.759,53.877,64.663,53.683,64.218,53.451Z"/><path d="M62.311,36.913a.4.4,0,0,1-.162.068.379.379,0,0,0-.221.107l-.173.173a.375.375,0,0,0-.081.119,2.864,2.864,0,0,1-.318.522,4.586,4.586,0,0,0-.362.574.347.347,0,0,1-.227.156.376.376,0,0,0-.151.078.378.378,0,0,1-.257.089c-.581,0-1.167.006-1.755.019a.375.375,0,0,0-.363.42c.017.144.028.282.034.426a.374.374,0,0,0,.344.357c.09.008.18.02.27.03.127.016.254.032.389.039a.393.393,0,0,1,.4.388.42.42,0,0,1-.13.3.447.447,0,0,1-.238.1c-.111-.005-.218-.019-.324-.032s-.235-.029-.352-.035a.363.363,0,0,0-.271.1.376.376,0,0,0-.124.26c-.012.245-.019.5-.016.762a.389.389,0,0,0-.068.285.408.408,0,0,0,.151.26,2.342,2.342,0,0,1,.361.654.375.375,0,0,0,.546.193,12.193,12.193,0,0,0,1.439-1.072,9.278,9.278,0,0,1,1.642-1.172,6.206,6.206,0,0,0,1.951-1.42,14.151,14.151,0,0,0,1.334-1.723.377.377,0,0,0-.124-.536l-.219-.122a3.706,3.706,0,0,1-.6-.376,3.006,3.006,0,0,1-.6-.731L63.99,36.1l-.01-.015-.013-.02,0,0-.007-.008a.376.376,0,0,0-.291-.2.37.37,0,0,0-.329.131A5.3,5.3,0,0,1,62.311,36.913Z"/><path d="M67.732,51.164a.376.376,0,0,0,.273.178c.342.043.683.075,1.025.105l.037-.373-.034.374h.034a.374.374,0,0,0,.333-.2.491.491,0,0,0,.04-.126,7.674,7.674,0,0,0,.068-2.595c-.067-.941-.228-1.193-.377-1.316a.619.619,0,0,0-.354-.106c-.07.009-.154.014-.242.02a3.879,3.879,0,0,0-.547.06.375.375,0,0,0-.3.38c.036.986.061,1.892.061,2.988a.811.811,0,0,1-.051.287A.376.376,0,0,0,67.732,51.164Z"/><path d="M67.163,51.869a9.629,9.629,0,0,0-2.58.079.376.376,0,0,0-.152.672c.148.108.307.207.547.355a1.378,1.378,0,0,1,.355.276.375.375,0,0,0,.515.04.675.675,0,0,1,.191-.125h0a4.576,4.576,0,0,0,.867-.363l.405-.233a.375.375,0,0,0-.152-.7Z"/><path d="M66.982,53.606a3,3,0,0,0-.868.429,1.78,1.78,0,0,1-.389.262.376.376,0,0,0-.211.318c-.012.217-.036.434-.065.645a.375.375,0,0,0,.371.427.347.347,0,0,0,.09-.011c2.317-.57,4.846-1.255,7.961-2.156a.377.377,0,0,0,.241-.506l-.042-.089-.343.1v0l.323-.139a.388.388,0,0,0-.358-.227,12.307,12.307,0,0,1-2.478-.118c-.354-.058-.719-.127-1.092-.2l-.672-.126a.383.383,0,0,0-.312.084,8.022,8.022,0,0,1-1.8,1.169C67.234,53.515,67.11,53.56,66.982,53.606Z"/><path d="M63.857,34.745l.125.144a11.737,11.737,0,0,1,.924,1.166v0a1.574,1.574,0,0,0,.663.506c.073.037.146.072.22.118.055.032.113.071.21.136a.371.371,0,0,0,.208.063.375.375,0,0,0,.372-.325c.027-.21.062-.418.1-.628.05-.3.1-.609.133-.92a.375.375,0,0,0-.086-.28,3.679,3.679,0,0,0-.376-.373,2.014,2.014,0,0,1-.4-.427,1.885,1.885,0,0,1-.167-1.034.376.376,0,0,0-.223-.371.371.371,0,0,0-.424.085,3.9,3.9,0,0,0-.287.36l-.318.422c-.143.188-.286.377-.429.572a.578.578,0,0,1-.178.165.357.357,0,0,0-.209.244.3.3,0,0,0,.082.282A.592.592,0,0,0,63.857,34.745Z"/><path d="M57.9,45.866a9.721,9.721,0,0,1-1.094-.11,9.329,9.329,0,0,0-1.3-.118,2.253,2.253,0,0,1-.7-.122.375.375,0,0,0-.492.32l-.015.154c-.033.346-.067.694-.073,1.05a.369.369,0,0,0,.053.2.471.471,0,0,1,.062.311.376.376,0,0,0,.546.39c.2-.105.408-.2.618-.294a5.3,5.3,0,0,0,.536-.282,3.3,3.3,0,0,1,.539-.273,5.187,5.187,0,0,1,.8-.166l.332-.049a.961.961,0,0,0,.236-.059.375.375,0,0,0,.22-.176.408.408,0,0,0,.038-.1,1.05,1.05,0,0,0,.046-.223.374.374,0,0,0-.359-.448Z"/><path d="M57.563,50.139a.392.392,0,0,0-.292-.1,3.8,3.8,0,0,0-1.071.209l-.007,0c-.273.114-.585.254-.89.413a.376.376,0,0,0-.2.386,7.5,7.5,0,0,0,.27,1.091c.045.152.092.3.133.459a.375.375,0,0,0,.191.237.365.365,0,0,0,.171.041A.351.351,0,0,0,56,52.858l.237-.09c.146-.057.292-.114.438-.165a.376.376,0,0,0,.25-.333.372.372,0,0,1,.18-.3,1.767,1.767,0,0,0,.583-1.554A.38.38,0,0,0,57.563,50.139Z"/><path d="M57.169,47.988a.375.375,0,0,0-.371-.072,4.548,4.548,0,0,0-.843.385c-.306.174-.595.33-.857.462a1.85,1.85,0,0,0-.387.186.374.374,0,0,0-.172.364l.03.3a.372.372,0,0,0,.2.289.366.366,0,0,0,.171.042.378.378,0,0,0,.181-.046l.356-.192a5.681,5.681,0,0,1,1.377-.425,1.179,1.179,0,0,1,.275-.015c.079,0,.161,0,.24,0a.375.375,0,0,0,.35-.4A1.318,1.318,0,0,0,57.169,47.988Z"/><path d="M57.591,68.667c-.034-.372-.066-.717-.067-1v0l0-.588a19.646,19.646,0,0,0-.312-4.191.374.374,0,0,0-.373-.413h-.9a.375.375,0,0,0-.271.115.379.379,0,0,0-.1.275c.12,2.976.184,5.993.2,9.223a.376.376,0,0,0,.115.268.37.37,0,0,0,.26.1h.011a1.374,1.374,0,0,0,1.032-.454C57.826,71.279,57.7,69.891,57.591,68.667Z"/><path d="M57.562,112.4l.005,0a3.888,3.888,0,0,0,1.747.48,9.692,9.692,0,0,1,1.014.075,10.074,10.074,0,0,0,1.089.08,2.105,2.105,0,0,0,1.974-.948.376.376,0,0,0-.438-.553,6.839,6.839,0,0,1-2.519.289,4.437,4.437,0,0,1-2.595-.933.375.375,0,0,0-.608.332C57.343,112.276,57.421,112.321,57.562,112.4Z"/><path d="M55.514,59.6a.376.376,0,0,0,.375.382H55.9l1.4-.03a.375.375,0,0,0,.366-.375c0-1.283-.025-2.5-.056-3.687a.373.373,0,0,0-.161-.3.427.427,0,0,1-.193-.3c0-.029-.006-.12.171-.275a.375.375,0,0,0,.152-.315l-.036-1.052a.376.376,0,0,0-.5-.339c-.344.123-.684.251-1.024.38l-.463.175a.374.374,0,0,0-.238.415,26.11,26.11,0,0,1,.211,4.979Z"/><path d="M64.35,59.328c-.334,0-.657.006-.954-.012a.4.4,0,0,0-.28.1A.377.377,0,0,0,63,59.69l-.006.269c0,.1-.007.21-.007.322v.572a.376.376,0,0,0,.31.369c.028,0,.052.009.072.014a.373.373,0,0,0,.292.152l.237.007c.159,0,.319.01.48.01a3.773,3.773,0,0,0,.928-.1.375.375,0,0,0,.28-.32.312.312,0,0,1,.031-.123.394.394,0,0,0,.037-.3c-.135-.508-.29-1.083-.843-1.292a.374.374,0,0,0-.29.011A.46.46,0,0,1,64.35,59.328Z"/><path d="M71.418,26.157a.377.377,0,0,0-.135-.073.642.642,0,0,1-.105-.037.377.377,0,0,0-.493.151c-.113.2-.217.4-.324.613-.093.181-.188.368-.294.559a8.059,8.059,0,0,0-.528,1.167.361.361,0,0,0,.17.425.348.348,0,0,0,.187.052.429.429,0,0,0,.3-.121,7.632,7.632,0,0,0,1.31-1.614c.084-.15.175-.307.265-.457a.455.455,0,0,0-.14-.522A1.365,1.365,0,0,0,71.418,26.157Z"/><path d="M69.5,19.59a5.281,5.281,0,0,0,.418,1.154h0a2.16,2.16,0,0,0,1.887,1.193,5.77,5.77,0,0,0,4.2-2.4.4.4,0,0,1,.582-.1.313.313,0,0,1,.112.473,7.194,7.194,0,0,1-4.491,2.871.376.376,0,0,0-.312.435l.031.168a4.077,4.077,0,0,1,.075.535,7.542,7.542,0,0,1-.01.823l-.015.36a.441.441,0,0,1-.009.094.374.374,0,0,0,.668.3,7.468,7.468,0,0,1,.813-.962.741.741,0,0,0,.095-.1,10.356,10.356,0,0,1,4.547-3.072.376.376,0,0,0,.259-.472c-.043-.139-.088-.27-.131-.4a3.672,3.672,0,0,1-.265-1.238,6.7,6.7,0,0,0-.134-1.2c-.035-.2-.07-.4-.1-.616a.309.309,0,0,1,.038-.206.385.385,0,0,0,.047-.108.292.292,0,0,1,.173-.2,2.616,2.616,0,0,0,1.346-2.2,4.534,4.534,0,0,0-.04-1.51.378.378,0,0,0-.232-.25,2.046,2.046,0,0,0-.713-.1.378.378,0,0,0-.21.073.353.353,0,0,1-.324.06.38.38,0,0,0-.2,0l-.2.051a2,2,0,0,1-1.163.09,3.93,3.93,0,0,1-1.466-1.368,5.69,5.69,0,0,1-.293-.686c-.37-.967-.986-2.583-2.388-2.134a5.087,5.087,0,0,0-.829.374,3.514,3.514,0,0,1-.87.367,2.556,2.556,0,0,1-1.968-.239.377.377,0,0,0-.529.188c-.88,2.176-.118,7.3,1.016,8.626A3.25,3.25,0,0,1,69.5,19.59Z"/><path d="M74.658,24.6a.374.374,0,0,0,.105.268c.152.158.3.326.445.492.13.149.26.3.392.438l.061.066a1.764,1.764,0,0,1,.355.478.372.372,0,0,0,.289.241.446.446,0,0,0,.063.005.374.374,0,0,0,.29-.137,5.369,5.369,0,0,1,.7-.718,4.362,4.362,0,0,1,1.038-.637c.161-.08.321-.16.475-.245a4.909,4.909,0,0,1,2.311-.442,9.712,9.712,0,0,0,1.572-.134,1.719,1.719,0,0,1,.555,0,.473.473,0,0,0,.447-.405.375.375,0,0,0-.07-.483,7.424,7.424,0,0,0-1.562-1.031c-2.317-1.156-4.721-.509-7.35,1.976A.382.382,0,0,0,74.658,24.6Z"/><path d="M67.55,34.525a.322.322,0,0,1,.055.243c0,.024-.005.113-.005.137l-.06.6c-.093.937-.19,1.907-.332,2.83a9.988,9.988,0,0,1-.687,2.773c-.067.157-.157.166-.187.168a.366.366,0,0,0-.16.053,1.717,1.717,0,0,1-.716.225l-.32.036a.376.376,0,0,0-.331.355c-.026.523-.05,1.045-.05,1.568v.041a.35.35,0,0,0-.081.127.376.376,0,0,0,.217.484l.036.013h0c.107.04.217.081.339.14a3.517,3.517,0,0,0,.651.189l.248.058a.318.318,0,0,1,.219.148.553.553,0,0,1,0,.423c-.006.045-.015.095-.026.145a.394.394,0,0,0,.013.2l-.018,0a.7.7,0,0,0,0,.1.541.541,0,0,1,.007.218,3.694,3.694,0,0,0-.1.46.375.375,0,0,0,.369.44h.412a.471.471,0,0,0,.25-.087,3.184,3.184,0,0,1,.6-.214.375.375,0,0,0,.263-.485,3.561,3.561,0,0,1-.133-1.121.648.648,0,0,1,.277-.574.464.464,0,0,1,.116-.047.376.376,0,0,0,.274-.413,3.425,3.425,0,0,1-.034-.435l0-1.351a3.582,3.582,0,0,1,.038-.762.374.374,0,0,0-.055-.285.312.312,0,0,1-.045-.223.362.362,0,0,0,0-.1.434.434,0,0,1,.008-.165,50.15,50.15,0,0,0,.673-5.874.513.513,0,0,1,.262-.519.379.379,0,0,0,.126-.083l.07-.069a4.819,4.819,0,0,0,.711-.7,4.416,4.416,0,0,1,.6-.6,7.488,7.488,0,0,0,1.567-1.494c.22-.295.447-.575.671-.852a8.371,8.371,0,0,0,1.846-3.169.467.467,0,0,1,.063-.128.374.374,0,0,0-.026-.441c-.092-.11-.191-.215-.29-.319S74.7,26,74.609,25.89l-.123-.142c-.085-.1-.17-.2-.258-.3a.388.388,0,0,0-.285-.122.374.374,0,0,0-.279.133,12.529,12.529,0,0,0-1.1,1.615,11.142,11.142,0,0,1-1.076,1.574c-.107.124-.219.26-.336.4a4.927,4.927,0,0,1-2.139,1.809.388.388,0,0,1-.468-.273.368.368,0,0,0-.059-.1.354.354,0,0,1-.066-.221,5.733,5.733,0,0,1,.063-.793.376.376,0,0,0-.294-.425,4.152,4.152,0,0,0-.612-.068l-.283-.02a.376.376,0,0,0-.374.349c-.065.905-.138,1.866-.267,2.791l-.032.2a1.517,1.517,0,0,0,.33,1.551A2.537,2.537,0,0,1,67.55,34.525Z"/><path d="M71.1,8.467A2.556,2.556,0,0,1,72.68,8.11a3.6,3.6,0,0,1,2.369,1.929A4.83,4.83,0,0,0,76.38,12.2a.374.374,0,0,0,.526.162,1.447,1.447,0,0,1,.219-.1,4.134,4.134,0,0,1,1.1-.226,2.06,2.06,0,0,1,.594-.083.376.376,0,0,0,.367-.3,5.32,5.32,0,0,0-.56-4.161,5.429,5.429,0,0,0-3.669-2.2c-1.315-.263-3.813-.258-5.3.836A2.686,2.686,0,0,0,68.521,8.09a.532.532,0,0,1-.034.122.377.377,0,0,0,.188.464A2.605,2.605,0,0,0,71.1,8.467Z"/><path d="M67.187,28.146a3.723,3.723,0,0,0,.762.1,4.246,4.246,0,0,1,.5.049.4.4,0,0,0,.068.006.375.375,0,0,0,.349-.237,8.039,8.039,0,0,1,.381-.833c.137-.247.26-.486.38-.719s.247-.481.379-.713a.375.375,0,0,0-.4-.553,4.568,4.568,0,0,0-1.1.349l-.266.129a7.039,7.039,0,0,1-.8.353.378.378,0,0,0-.21.179,2.247,2.247,0,0,0-.182.6L67,27.03a2.948,2.948,0,0,0-.095.744A.374.374,0,0,0,67.187,28.146Z"/><path d="M66.909,47.842a.376.376,0,0,0-.364-.359c-.8-.024-1.608-.1-2.387-.178a15.177,15.177,0,0,0-5.677.173.385.385,0,0,0-.225.251.442.442,0,0,0,.047.36,1.886,1.886,0,0,1,.151,1.269.364.364,0,0,0-.019.118.839.839,0,0,1-.009.148,4.873,4.873,0,0,0-.028.855,4.5,4.5,0,0,1-.01.646.376.376,0,0,0,.509.391,1.036,1.036,0,0,1,1.447.52.376.376,0,0,0,.494.156l.042-.025A18.248,18.248,0,0,1,58.5,53.945c-.612.384-.048,1.358.568.972a20,20,0,0,0,2.7-2.028c.436-.388,0-.966-.462-.932a17.428,17.428,0,0,1,1.927-.631c.4-.115.772-.22,1.044-.315a1.58,1.58,0,0,1,.846-.065c.478.081.962.156,1.446.218a.376.376,0,0,0,.418-.434,1.076,1.076,0,0,1-.02-.178C66.964,49.543,66.946,48.721,66.909,47.842Z"/><path d="M71.65,41.343a.352.352,0,0,0-.289-.114c-.236.012-.463.018-.69.023H70.62a.378.378,0,0,0-.081.012,1.424,1.424,0,0,1-.427.008c-.1-.007-.195-.014-.294-.014l-.252-.006a.376.376,0,0,0-.334.2.727.727,0,0,0-.1.33v.7a2.446,2.446,0,0,0,.125.683c.031.108.064.217.1.39a.829.829,0,0,0,.069.148.374.374,0,0,0,.309.163l.144,0c.062,0,.127,0,.195,0a1.081,1.081,0,0,0,.628-.155,4.177,4.177,0,0,1,.749-.388.386.386,0,0,0,.278-.133.394.394,0,0,0,.095-.3l-.023-.23a7.856,7.856,0,0,1-.061-.859c0-.057.005-.109.01-.176A.374.374,0,0,0,71.65,41.343Z"/><path d="M72.881,42.873a.464.464,0,0,1,.124.045,2.779,2.779,0,0,0,1.342.309,7.823,7.823,0,0,0,1.114-.1c.268-.039.537-.078.8-.092.752-.036,1.456-.03,2.334-.024a.38.38,0,0,0,.3-.144.371.371,0,0,0,.068-.323c-.109-.434-.2-.867-.263-1.288a.388.388,0,0,0-.383-.317c-.368.011-.74.049-1.111.087-1.223.123-2.315.1-3.412.17-.3.018-.608.036-.913.051a.375.375,0,0,0-.357.383c0,.21.025.428.045.647l.024.266A.386.386,0,0,0,72.881,42.873Z"/><path d="M53.141,47.79a7.167,7.167,0,0,0-.9-.073h-1a.376.376,0,0,0-.375.386c0,.13,0,.264,0,.4l0,.207a.375.375,0,0,0,.375.375h2.1a.376.376,0,0,0,.372-.431,1.392,1.392,0,0,0-.238-.624A.42.42,0,0,0,53.141,47.79Z"/><path d="M68.976,45.037a.364.364,0,0,0-.189-.113.378.378,0,1,0-.176.736.388.388,0,0,0,.106.015.379.379,0,0,0,.16-.053.652.652,0,0,0,.05.117.371.371,0,0,1,.058.227.375.375,0,0,0,.27.408,1.211,1.211,0,0,1,.485.256.373.373,0,0,0,.25.1.345.345,0,0,0,.1-.014,29.649,29.649,0,0,1,2.975-.6c.754-.124,1.534-.253,2.278-.421.44-.1.869-.2,1.294-.307.9-.219,1.75-.426,2.645-.574a.376.376,0,0,0,.287-.51l-.041-.108c-.022-.059-.043-.116-.067-.171a.375.375,0,0,0-.344-.227h0c-1.253.005-2.156.068-3.111.134-.346.024-.7.048-1.067.069a4.929,4.929,0,0,1-2.08-.281.37.37,0,0,0-.436.124.694.694,0,0,1-.217.183.913.913,0,0,1-.237.034,1.222,1.222,0,0,0-.553.136l-.083.051a2,2,0,0,1-.852.358,7.482,7.482,0,0,1-.833.035.645.645,0,0,0-.436.219.691.691,0,0,0-.076.077A.329.329,0,0,0,68.976,45.037Z"/><path d="M57.446,107.84l.005.1a.376.376,0,0,0,.127.282.5.5,0,0,1,.125.2.373.373,0,0,0,.319.24l.3.028c.273.025.526.048.731.048.4,0,.547.212.547.393s-.143.394-.547.394a5.429,5.429,0,0,1-.579-.047.375.375,0,0,0-.306.639,3.083,3.083,0,0,0,2.289.927h.029c1.146-.006,2.716-.014,3.457-1.084a.376.376,0,0,0-.185-.568,2.64,2.64,0,0,1-.916-.574,7.94,7.94,0,0,0-.7-.556,4.833,4.833,0,0,1-.88-.752.39.39,0,0,1-.08-.409.486.486,0,0,1,.331-.312.26.26,0,0,1,.26.119,4.089,4.089,0,0,0,.828.7,4.662,4.662,0,0,1,.545.419,4.792,4.792,0,0,0,.427.373.327.327,0,0,0,.367.046,1.665,1.665,0,0,0,1.217-.831,2.488,2.488,0,0,0-.4-2.059c-.229-.466-.489-1-.4-1.274a5.856,5.856,0,0,1,.451-.953,5.391,5.391,0,0,0,.56-1.276,11.718,11.718,0,0,0,.287-2.7.3.3,0,0,0-.073-.214c0-.363,0-.728.007-1.095a18.927,18.927,0,0,0-.692-6.5,8.63,8.63,0,0,0-1.326-2.253,7.757,7.757,0,0,1-1.361-2.405.345.345,0,0,1,.268-.446.382.382,0,0,1,.5.252,8.15,8.15,0,0,0,1.67,2.875c.171.217.341.434.505.655a.375.375,0,0,0,.676-.208,5.808,5.808,0,0,0-1.894-4.046.375.375,0,0,1,.026-.556.348.348,0,0,1,.525-.008,8.872,8.872,0,0,1,.938,1.144.371.371,0,0,0,.383.153.376.376,0,0,0,.292-.291c.06-.288.108-.577.155-.866a12.528,12.528,0,0,1,.293-1.42,3.065,3.065,0,0,1,.738-1.143,3.766,3.766,0,0,0,.842-1.294.6.6,0,0,1,.088-.165.382.382,0,0,0,.071-.279c-.155-1.054-.283-2.111-.41-3.172l-.137-1.118c-.168-1.382-.255-2.8-.336-4.263a.375.375,0,0,0-.159-.286.451.451,0,0,1-.095-.087,8.258,8.258,0,0,0-1.711-1.561l-.106-.079a7.655,7.655,0,0,0-1.116-.731c-.061-.03-.146-.086-.24-.147a2.023,2.023,0,0,0-.931-.4.325.325,0,0,1-.356-.354.459.459,0,0,1,.094-.3.355.355,0,0,1,.285-.129,1.663,1.663,0,0,1,.92.328c.118.067.238.136.364.2a8.527,8.527,0,0,1,1.025.633c.133.09.268.182.405.272a9.349,9.349,0,0,1,.869.663.382.382,0,0,0,.413.048.376.376,0,0,0,.2-.361l-.023-.334c-.015-.236-.031-.471-.051-.7l-.043-.466a.374.374,0,0,0-.214-.311l-.323-.148a5.515,5.515,0,0,1-.943-.5c-.026-.018-.076-.059-.135-.106-.4-.321-.577-.469-.8-.352a.252.252,0,0,1-.2-.023.476.476,0,0,1-.238-.265c-.082-.3.2-.45.318-.5a1.286,1.286,0,0,1,1.153.337,5.061,5.061,0,0,0,.637.4.374.374,0,0,0,.547-.378q-.1-.8-.211-1.6c-.141-1.058-.283-2.115-.4-3.173a.375.375,0,0,0-.5-.311,6.292,6.292,0,0,1-1.782.229,4.2,4.2,0,0,1-.935-.013.375.375,0,0,0-.442.365A6.389,6.389,0,0,1,61.527,66.6a3.876,3.876,0,0,0-.4,3.487c.046.2.094.4.133.6a.4.4,0,0,0,.056.137,3.391,3.391,0,0,0,.7.7c.121.1.242.2.348.3l.128.126a10.415,10.415,0,0,1,.845.893,10.091,10.091,0,0,1,1.274,2.223.45.45,0,0,1-.246.6.269.269,0,0,1-.4-.141,8.708,8.708,0,0,0-1.73-2.728q-.208-.2-.436-.4a.375.375,0,0,0-.612.2c-.265,1.131-.544,2.249-.822,3.363-.573,2.3-1.167,4.68-1.61,7.079a.375.375,0,0,0,.646.32c.471-.519,1-1.022,1.515-1.509.265-.251.529-.5.788-.756a.328.328,0,0,1,.34-.1.489.489,0,0,1,.325.327.325.325,0,0,1-.108.329c-.3.291-.611.564-.925.836a6.861,6.861,0,0,0-2.348,2.972c-.145.436-.265.816-.353,1.2a.384.384,0,0,0-.009.107c.086,1.442.234,2.844.39,4.329l.035.337a.386.386,0,0,0,.028.106A5.191,5.191,0,0,0,60.011,93a2.372,2.372,0,0,1,.517.842.238.238,0,0,1-.093.335.5.5,0,0,1-.609-.067.375.375,0,0,0-.652.227,10.742,10.742,0,0,1-.35,2.131,12.127,12.127,0,0,0,.326,7.129.371.371,0,0,0,.091.157.4.4,0,0,1,.109.367,5.057,5.057,0,0,1-.383,1.258,4.256,4.256,0,0,0-.2.593,2.635,2.635,0,0,1-.218.589,1.311,1.311,0,0,1-.546.446l-.133.077A.74.74,0,0,0,57.446,107.84Z"/><path d="M49.19,114.057a.376.376,0,0,0,.2.536,9.542,9.542,0,0,0,4.466.127c.5-.064.988-.127,1.467-.161,1.484-.108,2.184.081,2.759.739a.379.379,0,0,0,.274.129l.341.009c.263.007.529.015.8.015a6.628,6.628,0,0,0,2.127-.289,2.525,2.525,0,0,1,.5-.069,1.943,1.943,0,0,0,1.022-.264l.1-.074a7.038,7.038,0,0,1,.651-.448.487.487,0,0,0,.261-.341l.025-.118a1.067,1.067,0,0,0,.01-.254c-.013-.1-.027-.195-.047-.295a.375.375,0,0,0-.621-.2,4.331,4.331,0,0,1-1.439.86h0a4.469,4.469,0,0,1-2.358-.179,8.207,8.207,0,0,0-1.506-.27,1.849,1.849,0,0,1-1.668-1.221.379.379,0,0,0-.4-.277,5.02,5.02,0,0,0-1.806.637,7.357,7.357,0,0,1-.891.409,4.108,4.108,0,0,1-1.449.17c-.225,0-.454,0-.626.016A1.9,1.9,0,0,0,49.19,114.057Z"/><path d="M78,119.32a.359.359,0,0,0,.019-.117.271.271,0,0,1,.184-.254l.292-.139c.677-.316,1.52-.709,1.721-1.556a.375.375,0,0,0-.53-.423l-.322.154a4.257,4.257,0,0,0-1.9,1.394l0,0a4.932,4.932,0,0,1-.84.934,6.941,6.941,0,0,1-2.5,1.442,5.763,5.763,0,0,0-.869.329c-.647.283-1.379.6-1.86.3a4.788,4.788,0,0,0-2.516-.868.375.375,0,0,0-.375.216,1.324,1.324,0,0,0-.062,1.168,1.628,1.628,0,0,0,1.188.763,7.655,7.655,0,0,0,1.655.164C73.885,122.831,77.319,121.819,78,119.32Z"/><path d="M63.486,115.555a1.4,1.4,0,0,1-.344.171,6.047,6.047,0,0,1-.861.168,7.769,7.769,0,0,0-.807.147,6.41,6.41,0,0,1-.987.15.375.375,0,0,0-.105.722,3.569,3.569,0,0,0,1.2.279h.135a2.328,2.328,0,0,0,2.3-1.149.375.375,0,0,0-.53-.489Z"/><path d="M51.03,62.2c.132,0,.266,0,.4.007s.291.008.439.008a4.95,4.95,0,0,0,.653-.037c.241-.033.476-.077.711-.121l.382-.071a1.987,1.987,0,0,0,.338-.095l.053-.019a.5.5,0,0,0,.537-.265,1.007,1.007,0,0,0,.1-.406.5.5,0,0,0-.136-.381.5.5,0,0,0-.374-.155l-.78.019c-.822.02-1.644.04-2.4.049a.5.5,0,0,0-.389.206.517.517,0,0,0-.084.438l.056.378A.5.5,0,0,0,51.03,62.2Z"/><path d="M49.418,117.441l1.332.286c.675.006,1.351.018,2.051.03h.382a7.873,7.873,0,0,0,4.46-.948.377.377,0,0,0,.155-.262.373.373,0,0,0-.089-.29c-1.03-1.187-2.391-.934-3.705-.692a8.849,8.849,0,0,1-1.931.212h0a11.4,11.4,0,0,1-2.679-.385.374.374,0,0,0-.478.389,8.431,8.431,0,0,0,.218,1.383A.374.374,0,0,0,49.418,117.441Z"/><path d="M73.669,118.3l-.078-.046a1.047,1.047,0,0,0-.513-.191A.953.953,0,0,1,72.7,118l-.112-.046a1.912,1.912,0,0,0-.959-.2.333.333,0,0,1-.228-.107.375.375,0,0,0-.582.063c-.178.279-.361.552-.564.811-.105.142-.292.337-.5.563l-.156.165a.375.375,0,0,0,.205.625l.425.081a11.876,11.876,0,0,0,2.213.283,4.317,4.317,0,0,0,1.5-.245,5.379,5.379,0,0,0,2.3-1.7,9.281,9.281,0,0,1,1.044-1.031,6.514,6.514,0,0,1,1.4-.8c.333-.156.672-.315,1.016-.517a.581.581,0,0,1,.108-.047.376.376,0,0,0,.243-.452,4.428,4.428,0,0,0-.342-.867.375.375,0,0,0-.24-.193.384.384,0,0,0-.3.052,3.538,3.538,0,0,1-3,.525,6.645,6.645,0,0,0-1.623-.459c-.288-.056-.57-.109-.839-.188a.488.488,0,0,0-.411.138.372.372,0,0,0-.123.376.4.4,0,0,0,.29.29c.24.06.48.119.718.173a.318.318,0,0,1,.247.419.4.4,0,0,1-.49.333l-.417-.1a8.633,8.633,0,0,0-1.124-.235.365.365,0,0,0-.355.161l-.1.143c-.085.125-.17.248-.251.375a.375.375,0,0,0,.281.577,1.96,1.96,0,0,1,.339.058,1.374,1.374,0,0,1,.168.078,1.311,1.311,0,0,0,.509.178,2.6,2.6,0,0,1,1.138.373.3.3,0,0,1,.174.186.37.37,0,0,1-.038.25A.424.424,0,0,1,73.669,118.3Z"/><path d="M83.04,53.251l-.006-.744a.375.375,0,0,0-.526-.343,21.938,21.938,0,0,1-4.841,1.3c-1,.189-2.039.385-3.053.664-.9.245-1.794.5-2.7.75-2.126.6-4.325,1.213-6.487,1.732a.376.376,0,0,0-.281.293l-.062.314c-.061.3-.122.609-.173.914a.337.337,0,0,0,.219.4.383.383,0,0,0,.317.045c1.215-.377,2.485-.659,3.713-.931a35.559,35.559,0,0,0,5.117-1.408c1.413-.542,2.9-.952,4.343-1.348,1.381-.381,2.81-.774,4.171-1.283A.375.375,0,0,0,83.04,53.251Z"/><path d="M48.91,53.125a.376.376,0,0,0,.367.3c.47,0,.973-.017,1.3-.028.151-.005.261-.009.312-.009a10.075,10.075,0,0,1,1.177.1,10.7,10.7,0,0,0,1.3.1,4.025,4.025,0,0,0,.966-.107l-.088-.364.1.363a.7.7,0,0,0,.282-.1.374.374,0,0,0,.2-.4,6.259,6.259,0,0,0-.158-.674.37.37,0,0,0-.4-.267c-.233.024-.462.066-.688.109a6.47,6.47,0,0,1-2.142,0c-.294-.039-.589-.079-.886-.1a.387.387,0,0,0-.254.074l-.1.074c-.336.18-.7.354-1.068.516A.375.375,0,0,0,48.91,53.125Z"/><path d="M85.149,50.232a2.47,2.47,0,0,0,.683-1.939,48.654,48.654,0,0,1,.348-6.531l.055-.506a.373.373,0,0,0-.16-.349,5.251,5.251,0,0,0-5.055-.673c-.049.019-.029,0-.065.035-.064.037-.517.25-.783.35a.375.375,0,0,0-.2.176.467.467,0,0,1-.145.165.789.789,0,0,0-.176.243.375.375,0,0,0-.1.332,10.782,10.782,0,0,0,1.058,3.115.365.365,0,0,1,.03.311.488.488,0,0,1-.281.271.37.37,0,0,0-.154.111.421.421,0,0,1-.28.15,20.45,20.45,0,0,0-2.6.544,21.524,21.524,0,0,1-2.316.5,10.164,10.164,0,0,0-1.578.384c-.38.114-.76.229-1.155.307-.31.061-.634.094-.958.128-.269.028-.538.056-.8.1a.374.374,0,0,0-.313.423,10.391,10.391,0,0,1,.089,1.665c0,.149,0,.3,0,.448a5.459,5.459,0,0,1-.057,1.133.372.372,0,0,0,.071.3.376.376,0,0,0,.272.145c1.282.086,2.585.129,3.9.129,1.466,0,2.949-.053,4.436-.159a7.963,7.963,0,0,0,1.668-.347,5.194,5.194,0,0,1,1.85-.3A3.42,3.42,0,0,0,85.149,50.232Z"/><path d="M83.477,25.332a11.722,11.722,0,0,0-2.2-.137h-.231a4.639,4.639,0,0,0-3.56,1.77c-.258.254-.527.519-.837.787a.424.424,0,0,1-.368.129l-.128.344-.009-.409a.377.377,0,0,0-.293,0,.371.371,0,0,0-.208.207,11.493,11.493,0,0,1-1.822,2.794c-.241.3-.485.609-.727.93a6.753,6.753,0,0,1-1.42,1.339,7.093,7.093,0,0,0-.855.8,7.583,7.583,0,0,1-.628.614.376.376,0,0,0-.135.286,29.824,29.824,0,0,1-.559,5.238.4.4,0,0,0,.105.314.436.436,0,0,0,.316.14.448.448,0,0,0,.064.005.371.371,0,0,0,.047,0l.1-.009c.623,0,1.283-.025,1.974-.068a.4.4,0,0,1,.177.036.467.467,0,0,0,.166.032c1.133-.031,2.286-.062,3.425-.112a.375.375,0,0,0,.086-.735,8.434,8.434,0,0,1-1.79-.862,8.572,8.572,0,0,0-1.671-.82.354.354,0,0,1-.263-.266.5.5,0,0,1,.129-.447.3.3,0,0,1,.32-.053,8.885,8.885,0,0,1,1.874.86c.083.047.177.105.28.169.61.376,1.442.889,2.128.66a.288.288,0,0,1,.391.155.451.451,0,0,1-.112.563.375.375,0,0,0,.248.683c.243-.024.492-.049.736-.067a.375.375,0,0,0,.346-.39,11.082,11.082,0,0,1,.012-1.273.376.376,0,0,0-.311-.4,9.15,9.15,0,0,1-4.877-2.755.354.354,0,0,1-.1-.36.49.49,0,0,1,.329-.323.314.314,0,0,1,.309.111,8.689,8.689,0,0,0,4.377,2.532.442.442,0,0,0,.3-.1.49.49,0,0,0,.167-.289l.027-.15a.62.62,0,0,0-.031-.217.375.375,0,0,0-.334-.281.375.375,0,0,1-.227-.107,4.732,4.732,0,0,1-1.815-2.832,14.186,14.186,0,0,1,.024-3.765.459.459,0,0,1,.523-.4.262.262,0,0,1,.268.324,20.073,20.073,0,0,0-.075,3.368,3.227,3.227,0,0,0,.488,1.506.379.379,0,0,0,.423.159.374.374,0,0,0,.269-.363c-.006-.766-.013-1.558.036-2.336a5.938,5.938,0,0,1,1.178-3.387.48.48,0,0,1,.675-.065.246.246,0,0,1,.051.393,6.521,6.521,0,0,0-1.108,4.666.363.363,0,0,0,.314.32.4.4,0,0,0,.416-.224c.073-.153.164-.177.226-.181a.486.486,0,0,1,.4.219.385.385,0,0,1,.02.41,12.126,12.126,0,0,0-1.138,4.355.376.376,0,0,0,.695.223c.234-.385.485-.757.756-1.123a3.652,3.652,0,0,1,.533-.528,3.169,3.169,0,0,0,.809-.908.285.285,0,0,1,.244-.184.452.452,0,0,1,.4.223.372.372,0,0,1,.01.395,3.848,3.848,0,0,1-.843.954c-.128.117-.253.232-.368.347a5.252,5.252,0,0,0-.736.959.375.375,0,0,0,.4.563c.259-.06.511-.114.739-.156a5.63,5.63,0,0,1,3.833.715.376.376,0,0,0,.557-.291c.433-4.491.626-9.633-2.585-13.831l0,0a.382.382,0,0,1-.064-.131A.372.372,0,0,0,83.477,25.332Z"/><path d="M81.2,60.094a.327.327,0,0,0,.076.008.38.38,0,0,0,.257-.1.376.376,0,0,0,.115-.326c-.048-.339-.111-.662-.174-.986-.06-.3-.12-.61-.165-.927a.375.375,0,0,0-.466-.31c-1.347.353-2.689.777-3.949,1.18a.375.375,0,0,0,.058.728C78.239,59.555,79.736,59.789,81.2,60.094Z"/><path d="M77.252,71.907a11.708,11.708,0,0,1,1.639,1.585.375.375,0,0,0,.642-.118c.19-.552.433-1.082.691-1.645A11.611,11.611,0,0,0,81.283,68.7c.079-.5.175-.995.271-1.494a24.571,24.571,0,0,0,.459-3.106.376.376,0,0,0-.375-.4h-.91a3.815,3.815,0,0,1-.471-.043c-.168-.022-.339-.043-.506-.049a.342.342,0,0,0-.275.106.372.372,0,0,0-.113.274l.015.767a15.159,15.159,0,0,1-.262,4.06.352.352,0,0,1-.463.26.371.371,0,0,1-.3-.462,25.041,25.041,0,0,0,.232-5.149.376.376,0,0,0,.166-.289.373.373,0,0,1,.273-.366,4.952,4.952,0,0,1,1.48-.205h.849a.375.375,0,0,0,.375-.366c.006-.286.012-.6.012-.931a.374.374,0,0,0-.294-.366c-1.7-.376-3.478-.65-5.009-.877-.157-.025-.2-.093-.209-.115a.611.611,0,0,0-.2-.18v-.344a.375.375,0,0,0-.49-.357c-1.328.429-2.759.876-4.227,1.235-.357.085-.791.226-1.256.377l-.151.049a.375.375,0,0,0-.035.7,10.629,10.629,0,0,0,4.414.426c.586-.022,1.139-.042,1.585-.02a.406.406,0,0,1,.384.459.3.3,0,0,1-.345.33c-.561-.03-1.178-.016-1.832,0-2.052.048-4.384.1-5.653-1.231a.38.38,0,0,0-.363-.106,5.82,5.82,0,0,1-.677.134.375.375,0,0,0-.324.409q.262,2.621.543,5.231c.376,3.562.765,7.245,1.068,10.882a44.364,44.364,0,0,0,1.16,6.382,46.175,46.175,0,0,1,1.1,5.813.569.569,0,0,0,.065.178,5.473,5.473,0,0,1,.458,1.229c.268.948.572,2.024,2.2,2.248a10.122,10.122,0,0,1,3.233.858.28.28,0,0,1,.139.418.441.441,0,0,1-.594.235,7.65,7.65,0,0,0-2.212-.571l-.3-.046a.375.375,0,0,0-.378.567l.074.118a6.894,6.894,0,0,1,.455.812.371.371,0,0,0,.181.189,1.808,1.808,0,0,1,.45.325,2.53,2.53,0,0,0,.448.327,2.27,2.27,0,0,1,.3.2,2.792,2.792,0,0,1,.735,1.442l.086.285a.326.326,0,0,1-.245.436.393.393,0,0,1-.521-.246c-.024-.079-.045-.172-.068-.269a1.752,1.752,0,0,0-.562-1.115,3.081,3.081,0,0,0-.288-.166.376.376,0,0,0-.558.292A6.807,6.807,0,0,0,74,98.967a16.7,16.7,0,0,0,.291,2.054,12.219,12.219,0,0,1,.287,2.486,4.189,4.189,0,0,1-.312,1.194c-.309.858-.694,1.925.03,2.829a1.24,1.24,0,0,1,.227.57l.055.224a4.022,4.022,0,0,1,.085.932,3,3,0,0,0,.515,1.94c.1.133.1.234.005.339a.508.508,0,0,1-.621.083.376.376,0,0,0-.508.08c-.105.136-.2.282-.29.426-.056.089-.112.177-.17.26-.244.349-.405.58-.279.855s.394.3.843.347l.161.016a4.02,4.02,0,0,1,1.551.362,2.506,2.506,0,0,0,1.154.272,3.027,3.027,0,0,0,2.554-1.442,1.32,1.32,0,0,0,.075-.888.374.374,0,0,0-.157-.25.368.368,0,0,0-.289-.059.429.429,0,0,1-.422-.239.344.344,0,0,1,.061-.437,3.272,3.272,0,0,0,.66-3.239,8.306,8.306,0,0,1-.162-1.443,27.813,27.813,0,0,1,.45-4.778c.052-.3.114-.651.183-1.031.771-4.281,2.207-12.248-2.231-13.968a.465.465,0,0,1-.244-.616.258.258,0,0,1,.371-.176c.148.061.281.131.474.232a.375.375,0,0,0,.517-.482c-.245-.563-.536-1.105-.818-1.629a11.036,11.036,0,0,1-1.225-2.9.429.429,0,0,1,.361-.508.3.3,0,0,1,.392.244A7.346,7.346,0,0,0,78.1,82.2a.364.364,0,0,0,.358.221.373.373,0,0,0,.337-.251,7.8,7.8,0,0,0,.47-2.639c0-.117,0-.241-.006-.369a4.038,4.038,0,0,1,.093-1.256c.742-2.292-1.7-4.781-3.09-5.776a.405.405,0,0,1-.178-.387.4.4,0,0,0-.027-.18.247.247,0,0,1-.021-.1V64.7a.548.548,0,0,1,1.095,0l-.007,6.829A.376.376,0,0,0,77.252,71.907Z"/><path d="M82.436,56.064a4.294,4.294,0,0,1,.193-.509c.067-.156.134-.313.188-.474a.374.374,0,0,0-.479-.474c-1.342.473-2.749.872-4.109,1.259-1.431.407-2.91.828-4.336,1.338a37.419,37.419,0,0,1-4.541,1.2c-.966.213-1.964.433-2.936.7a.38.38,0,0,0-.227.177.375.375,0,0,0-.035.284,1.24,1.24,0,0,0,.587.841.988.988,0,0,0,.457.106,3.042,3.042,0,0,0,1-.25,5.515,5.515,0,0,1,.763-.238c1.033-.208,2.042-.474,2.907-.706,1.394-.374,2.809-.826,4.178-1.263a62.478,62.478,0,0,1,6.109-1.727A.376.376,0,0,0,82.436,56.064Z"/><path d="M56.281,33.7c-.007-.16-.018-.321-.031-.482-.017-.242-.036-.487-.036-.732a.382.382,0,0,0-.119-.268.4.4,0,0,0-.277-.107,4.953,4.953,0,0,0-.762.079c-.677.105-1.4.145-2.092.183l-.172.009a.377.377,0,0,0-.353.352c-.025.429-.064,1.076.337,1.393a.893.893,0,0,0,.849.1,1.776,1.776,0,0,1,.713.029,3.767,3.767,0,0,0,.6.066H55.95a.375.375,0,0,0,.352-.505A.358.358,0,0,1,56.281,33.7Z"/><path d="M60.074,32.537a4.36,4.36,0,0,1-.273.48,3.675,3.675,0,0,0-.427.844.374.374,0,0,0,.142.417c.881.623,1.6,1.158,2.265,1.685a.375.375,0,0,0,.5-.029c.124-.124.235-.257.348-.392l.146-.207a.391.391,0,0,0,.238-.4.381.381,0,0,0-.31-.339,4.875,4.875,0,0,1-.555-.628,6.42,6.42,0,0,0-.538-.625c-.268-.255-.529-.5-.837-.77a.375.375,0,0,0-.7-.036Z"/><path d="M56.247,25.516a.334.334,0,0,0-.3.138.375.375,0,0,0-.074.321,4.954,4.954,0,0,1,.1.62c.019.26.053.519.087.778A5.65,5.65,0,0,1,56.115,29a3.852,3.852,0,0,1-.405,1.346.375.375,0,0,0-.007.38.41.41,0,0,0,.329.191c.244,0,.525.01.8.023s.576.024.861.024a3.6,3.6,0,0,0,1.774-.349,5.553,5.553,0,0,1,.892-.439h0a.375.375,0,0,0,.152-.6,6.781,6.781,0,0,1-.032-.836v-.164c-.009-.157,0-.36,0-.583.024-.827.053-1.858-.5-2.347a1.1,1.1,0,0,0-.935-.236A16.1,16.1,0,0,1,56.247,25.516Z"/><path d="M57.115,34.174a.376.376,0,0,0,.3.148h.769a.375.375,0,0,0,.368-.306,3.72,3.72,0,0,1,.487-1.245c.083-.134.159-.289.237-.448l.125-.249a.375.375,0,0,0-.4-.544,9.341,9.341,0,0,1-1.62.123.375.375,0,0,0-.364.44,6.171,6.171,0,0,1,.05,1.075c0,.2,0,.4.005.545a.523.523,0,0,1-.017.134A.375.375,0,0,0,57.115,34.174Z"/><path d="M55.089,24.79a.377.377,0,0,0,.167-.04.37.37,0,0,1,.179-.034c.276,0,.558.016.842.029a10.875,10.875,0,0,0,2.23-.053.452.452,0,0,0,.308-.442l-.008-.141c-.027-.531-.073-1.42-1.135-1.428a7.458,7.458,0,0,0-1.255.1c-.05.007-.126.013-.216.02-.643.051-1.11.114-1.25.467a4.809,4.809,0,0,0-.234,1.1.376.376,0,0,0,.155.353A.383.383,0,0,0,55.089,24.79Z"/><path d="M53.392,50.177H51.239a.375.375,0,0,0-.375.375v.4a.376.376,0,0,0,.328.372l.267.035a9.34,9.34,0,0,0,1.25.11,1.581,1.581,0,0,0,.175-.014l.022-.38.035.374a.377.377,0,0,0,.3-.2.554.554,0,0,1,.086-.133,3.441,3.441,0,0,1,.307-.272.375.375,0,0,0-.242-.661Z"/><path d="M57.745,43.037a3.821,3.821,0,0,0-2.054-.474,8.586,8.586,0,0,0-.913.057.376.376,0,0,0-.335.36c-.011.35-.03.754-.048,1.152a.373.373,0,0,0,.19.344.386.386,0,0,1,.125.121l.006.008h0v0l0,0h0a.376.376,0,0,0,.391.148c.077.022.158.047.242.073a1.849,1.849,0,0,0,.624.036c.075,0,.145-.011.2-.008a6.533,6.533,0,0,1,.759.1,7,7,0,0,0,.874.109h.008a.426.426,0,0,0,.265-.146.477.477,0,0,0,.112-.312,2.587,2.587,0,0,1-.03-.323A1.682,1.682,0,0,0,57.745,43.037Z"/><path d="M54.051,39.3c-.014.176-.034.352-.055.528-.034.292-.068.584-.076.876a.375.375,0,0,0,.122.287.691.691,0,0,1,.129.143.576.576,0,0,1,.062.188c0,.005.006,0,.007.007a.456.456,0,0,0,.155.31.376.376,0,0,0,.376.185,4.7,4.7,0,0,1,1.628,0l.288.054c.142.026.293.054.447.087a.394.394,0,0,0,.077.008.376.376,0,0,0,.375-.375V40.183a4.911,4.911,0,0,0-.107-1.033.382.382,0,0,0-.377-.3c-.9.025-1.8.063-2.693.1A.374.374,0,0,0,54.051,39.3Z"/><path d="M51.044,26.9l.112.376a2.6,2.6,0,0,1-.34,2,.383.383,0,0,0,.008.379.392.392,0,0,0,.333.191l.2.036a4.268,4.268,0,0,0,.777.061c.247.006.493.02.739.036.319.019.639.038.96.038l.214,0c.055,0,.113,0,.174,0a.9.9,0,0,0,1.008-.824,4.792,4.792,0,0,0,.122-1.313,8,8,0,0,0-.288-1.85c-.186-.567-.822-.63-1.244-.671-.081-.009-.16-.016-.232-.027A20.8,20.8,0,0,0,51,25.116a.334.334,0,0,0-.313.156.376.376,0,0,0-.047.348C50.789,26.041,50.918,26.475,51.044,26.9Z"/><path d="M47.854,52.088a.374.374,0,0,0,.316.173.368.368,0,0,0,.13-.023,5.492,5.492,0,0,0,.546-.227c1.191-.609,1.237-.915,1.226-1.987l0-.327c0-.165.014-.367.03-.588a5.047,5.047,0,0,0-.158-2.161.376.376,0,0,0-.41-.222c-.13.023-.255.04-.386.051a.376.376,0,0,0-.283.171.288.288,0,0,1-.262.154H48.49a.375.375,0,0,0-.374.347c-.014.191-.035.382-.055.569a8.326,8.326,0,0,0-.069.9c0,.2.017.447.036.714a4.357,4.357,0,0,1-.123,1.991A.377.377,0,0,0,47.854,52.088Z"/><path d="M48.564,25.94c-.377.246-.719.495-.757.836a.523.523,0,0,0,.149.427l.191.2c.186.192.371.384.549.589a1.733,1.733,0,0,1,.484,1.064.375.375,0,0,0,.29.344.407.407,0,0,0,.084.009.375.375,0,0,0,.327-.192,3.547,3.547,0,0,0,.207-2.719,5.806,5.806,0,0,0-.356-.977.375.375,0,0,0-.63-.074,3.354,3.354,0,0,1-.443.431Z"/><path d="M45.453,28.775A2.239,2.239,0,0,1,45.2,29.8a.374.374,0,0,0,.149.488,3.394,3.394,0,0,0,1.73.52,2.846,2.846,0,0,0,.3-.016.375.375,0,0,0,.264-.152c.64-.878,1.013-1.582-.015-2.641l-.066-.068a2.024,2.024,0,0,1-.672-1.016,1.2,1.2,0,0,1,.426-1.021,2.65,2.65,0,0,1,.4-.276c.419-.257.9-.549.943-1.014a.924.924,0,0,0,.014-.12.375.375,0,0,0-.2-.333,2.8,2.8,0,0,0-.825-.28c-.021,0-2.114-.582-2.412-.01a.319.319,0,0,1-.064.086.375.375,0,0,0-.091.387l.114.321a2.768,2.768,0,0,1,.241,1.271,1.48,1.48,0,0,1-.442.819l-.18.223c-.185.251-.051.5.3,1.159C45.238,28.347,45.433,28.709,45.453,28.775Z"/><path d="M41.857,53.126a1.115,1.115,0,0,0,.655.188,4.552,4.552,0,0,0,1.6-.455c.14-.058.274-.113.4-.161.193-.073.385-.158.577-.243a6.131,6.131,0,0,1,.943-.359c1.176-.3,1.176-1.319,1.176-2.141v-.4c0-.379,0-.762.007-1.141a.709.709,0,0,0-.19-.349,1.343,1.343,0,0,1-.225-.326.354.354,0,0,0-.225-.2.346.346,0,0,0-.29.046,9.464,9.464,0,0,1-1.456.337,16.6,16.6,0,0,0-2.529.6.372.372,0,0,0-.244.259c-.068.252-.143.5-.217.74a8.611,8.611,0,0,0-.466,2.265A1.441,1.441,0,0,0,41.857,53.126Z"/><path d="M50.034,31.026a1.439,1.439,0,0,0,.03.172c.017.066.041.16.048.206l0,.026a.636.636,0,0,1-.016.168,1.548,1.548,0,0,0-.029.27v.326a.375.375,0,0,0,.32.371.982.982,0,0,0,.158.01,3.639,3.639,0,0,0,.469,0,.3.3,0,0,0,.043,0,.421.421,0,0,0,.375-.425v-1.07a.375.375,0,0,0-.311-.369,2.161,2.161,0,0,1-.589-.171.359.359,0,0,0-.387.072A.411.411,0,0,0,50.034,31.026Z"/><path d="M49.894,40.162c-.981.626-.6,1.35-.319,1.879.062.116.126.237.184.367h0c.055.125.1.252.151.38a5.119,5.119,0,0,0,.252.593.375.375,0,0,0,.332.2.339.339,0,0,0,.055,0l.206-.033a6.053,6.053,0,0,0,1.617-.293c.3-.086.608-.171.865-.218a.606.606,0,0,0,.211-.043.373.373,0,0,0,.213-.338l.007-.086a.37.37,0,0,0,.02-.232.634.634,0,0,1-.015-.143.383.383,0,0,0-.065-.212.48.48,0,0,1-.071-.144.406.406,0,0,0-.44-.274l-.1-.01a1.937,1.937,0,0,1-.371-.06,2.172,2.172,0,0,1-.868-.444.289.289,0,0,1-.024-.454.429.429,0,0,1,.618-.071.89.89,0,0,0,.283.166.38.38,0,0,0,.333-.028.375.375,0,0,0,.178-.283l.061-.533a.375.375,0,0,0-.172-.356.379.379,0,0,0-.4,0,.686.686,0,0,1-.353.081A4.357,4.357,0,0,0,49.894,40.162Z"/><path d="M61.871,60.6a14.945,14.945,0,0,1-2.728-.568.938.938,0,0,0-.5,1.808,17.521,17.521,0,0,0,3.226.635.945.945,0,0,0,.938-.938A.959.959,0,0,0,61.871,60.6Z"/><path d="M50.139,44.341q-.249.438-.5.875a.563.563,0,0,0,.972.568l.5-.875A.563.563,0,0,0,50.139,44.341Z"/></g><text x="0" y="143" fill="#000000" font-size="5px" font-weight="bold" font-family="'Helvetica Neue', Helvetica, Arial-Unicode, Arial, Sans-serif">Created by Hey Rabbit</text><text x="0" y="148" fill="#000000" font-size="5px" font-weight="bold" font-family="'Helvetica Neue', Helvetica, Arial-Unicode, Arial, Sans-serif">from the Noun Project</text></svg>